<?xml version="1.0" encoding="utf-8"?>
<!-- Generator: Adobe Illustrator 17.1.0, SVG Export Plug-In . SVG Version: 6.00 Build 0)  -->
<!DOCTYPE svg PUBLIC "-//W3C//DTD SVG 1.1//EN" "http://www.w3.org/Graphics/SVG/1.1/DTD/svg11.dtd">
<svg version="1.1" id="transform-square" xmlns="http://www.w3.org/2000/svg" xmlns:xlink="http://www.w3.org/1999/xlink" x="0px"
	 y="0px" viewBox="0 0 1009.9824 1009.9527" enable-background="new 0 0 1009.9824 1009.9527" xml:space="preserve">
<g id="transform-square-label">
	<path fill="#3FD7D7" d="M504.9521,0C226.0957,0,0,226.1314,0,505c0,278.8921,226.0957,504.9527,504.9521,504.9527
		c278.8984,0,505.0303-226.0606,505.0303-504.9527C1009.9824,226.1314,783.8505,0,504.9521,0z"/>
</g>
<g id="transform-square-transform-square">
	<path fill="#FFFFFF" d="M757.6787,320.6646V260.896h-59.7803v20.3682H534.8847V260.896h-59.7754v20.3682H312.0839V260.896h-59.7802
		v59.7686h21.333V475.086h-21.333v59.7807h21.333v154.4209h-21.333v59.7686h59.7802V728.688h163.0254v20.3682h59.7754V728.688
		h163.0137v20.3682h59.7803v-59.7686h-21.333V534.8667h21.333V475.086h-21.333V320.6646H757.6787z M720.042,475.086h-22.1436
		v59.7807h22.1436v154.4209h-22.1436v23.085H534.8847v-23.085h-59.7754v23.085H312.0839v-23.085h-22.1435V534.8667h22.1435V475.086
		h-22.1435V320.6646h22.1435v-23.0967h163.0254v23.0967h59.7754v-23.0967h163.0137v23.0967h22.1436V475.086z"/>
	<polygon fill="#FFFFFF" points="551.9267,551.9448 611.7314,668.8482 626.7714,618.8999 677.6132,601.5357 	"/>
	<path fill="#FFFFFF" d="M653.3252,679.729h33.4179v-3.8974v-29.5078h-33.4179V679.729z M661.1435,654.1656h17.8057v17.7695
		h-17.8057V654.1656z"/>
</g>
</svg>
